<?xml version="1.0" encoding="utf-8" ?>
<svg xmlns="http://www.w3.org/2000/svg" xmlns:xlink="http://www.w3.org/1999/xlink" width="688" height="188">
	<path fill="#F8F8F8" transform="matrix(2 0 0 2 -172 -417)" d="M369.853 235.311C371.624 235.116 373.473 235.192 375.257 235.172C375.24 236.733 375.338 238.446 374.916 239.953C373.231 240.226 371.597 240.21 369.895 240.188L369.853 235.311Z"/>
	<path fill="#F8F8F8" transform="matrix(2 0 0 2 -172 -417)" d="M397.628 235.372L402.452 235.238C402.476 236.917 402.582 238.865 402.145 240.486L397.216 240.486L397.209 240.212C397.182 239.017 396.79 236.25 397.628 235.372Z"/>
	<path fill="#F8F8F8" transform="matrix(2 0 0 2 -172 -417)" d="M369.911 243.976C371.62 244.051 373.326 244.091 375.037 244.112C375.004 252.644 374.629 261.362 375.163 269.877C373.419 269.793 371.743 269.821 370.002 269.948L369.911 243.976Z"/>
	<path fill="#F8F8F8" transform="matrix(2 0 0 2 -172 -417)" d="M399.237 243.838L402.446 243.896C402.442 246.278 402.802 268.774 402.428 269.578C402.358 269.729 402.214 269.834 402.107 269.962L401.312 269.97C399.991 269.932 398.673 269.975 397.352 270.01L397.216 253.242C397.205 250.266 397.009 247.151 397.32 244.193C397.963 243.816 398.509 243.872 399.237 243.838Z"/>
	<path fill="#F8F8F8" transform="matrix(2 0 0 2 -172 -417)" d="M307.915 234.013L312.997 234.026C312.965 239.431 313.666 265.001 311.756 267.991C310.767 269.54 308.963 270.114 307.268 270.472C305.968 270.568 304.46 270.872 303.251 270.304C302.852 269.748 302.881 268.968 303.001 268.313C303.394 266.178 305.738 266.975 306.962 265.799C307.402 265.376 307.573 264.813 307.653 264.229C308.07 261.198 307.827 257.821 307.821 254.756C307.808 247.855 307.623 240.907 307.915 234.013Z"/>
	<path fill="#F8F8F8" transform="matrix(2 0 0 2 -172 -417)" d="M341.62 243.802C342.352 243.765 343.089 243.749 343.812 243.888C345.518 244.217 347.199 244.851 348.129 246.4C348.877 247.646 349.469 248.916 349.08 250.369C348.795 250.773 348.607 251.038 348.134 251.244C345.14 252.552 345.277 247.74 342.646 247.281C341.917 247.153 341.689 247.323 341.122 247.702C337.935 253.254 349.28 256.657 349.908 262.542C350.085 264.204 349.534 266.226 348.475 267.527C346.973 269.371 344.747 269.735 342.523 269.964C340.575 269.743 338.653 269.233 337.22 267.813C336.325 266.926 335.317 265.17 335.437 263.868C335.491 263.286 335.854 262.754 336.321 262.422C337.02 261.926 338.082 261.7 338.912 261.961C340.594 262.489 340.41 264.724 341.124 266.111C341.689 266.53 341.827 266.636 342.573 266.563C343.519 266.469 345.042 265.505 345.49 264.665C347.208 261.441 337.612 256.195 336.2 252.153C335.673 250.643 335.6 248.673 336.387 247.237C337.468 245.263 339.583 244.421 341.62 243.802Z"/>
	<path fill="#F8F8F8" transform="matrix(2 0 0 2 -172 -417)" d="M412.469 243.812C413.647 243.727 414.935 243.905 416.054 244.279C417.498 244.763 418.629 246.082 419.284 247.417C419.864 248.599 420.111 249.658 419.668 250.913C419.145 251.373 418.868 251.593 418.141 251.567C415.162 251.458 416.531 249.053 414.86 247.832C414.365 247.47 413.716 247.332 413.12 247.491C412.581 247.635 412.131 248.018 411.83 248.478C409.346 252.274 419.368 256.729 420.252 262.169C420.546 263.974 420.034 266.263 418.9 267.711C417.411 269.614 415.049 269.798 412.829 270.043C411.404 269.877 410.042 269.569 408.862 268.714C407.592 267.793 406.229 265.665 406.23 264.053C406.231 263.192 406.717 262.66 407.317 262.087C407.743 261.681 408.206 261.479 408.795 261.517C410.708 262.24 410.973 264.578 412.225 266.007C412.811 266.289 413.342 266.555 414.02 266.419C414.666 266.289 415.094 265.864 415.423 265.321C418.366 260.469 407.875 256.6 406.763 251.388C406.427 249.814 406.545 247.715 407.484 246.359C408.624 244.712 410.604 244.14 412.469 243.812Z"/>
	<path fill="#F8F8F8" transform="matrix(2 0 0 2 -172 -417)" d="M358.441 243.822C359.821 243.764 361.615 243.876 362.834 244.587C364.247 245.41 365.908 247.452 366.176 249.099C366.254 249.578 366.163 250.066 365.833 250.425C365.239 251.072 364.497 251.549 363.608 251.598C362.042 251.146 362.129 249.117 361.29 247.981C360.957 247.529 360.543 247.426 360 247.413C359.11 247.391 358.11 247.875 357.53 248.539C354.521 251.983 366.05 256.99 366.376 262.935C366.478 264.781 365.658 266.86 364.375 268.182C362.788 269.818 360.641 270 358.499 270.091C358.418 270.081 358.337 270.075 358.256 270.063C356.243 269.752 354.116 268.801 352.962 267.048C352.343 266.105 352.039 264.907 352.294 263.793C352.486 262.954 353.109 262.015 353.912 261.649C356.537 260.454 356.312 265.677 358.325 266.286C359.122 266.528 360.642 266.264 361.349 265.813C361.841 265.5 362.164 265.046 362.21 264.453C362.497 260.734 354.879 256.186 352.735 253.203C352.671 253.115 352.609 253.025 352.546 252.935C352.332 250.8 352.098 248.179 353.37 246.32C354.55 244.595 356.503 244.12 358.441 243.822Z"/>
	<path fill="#F8F8F8" transform="matrix(2 0 0 2 -172 -417)" d="M380.374 233.85C381.93 233.747 383.479 233.815 385.036 233.865L385.114 254.488C385.129 258.266 385.396 262.238 384.984 265.99L394.479 265.819L394.501 270.053C389.762 269.977 385.023 269.987 380.284 269.99C380.04 265.747 379.493 235.041 380.374 233.85Z"/>
	<path fill="#F8F8F8" transform="matrix(2 0 0 2 -172 -417)" d="M227.128 244.004L231.904 244.27C230.98 249.562 229.437 254.79 228.354 260.062C227.757 262.913 226.478 271.084 224.805 273.273C223.527 274.945 220.856 276.093 218.804 276.283C218.038 276.353 217.642 276.203 217.063 275.72C216.69 274.614 216.753 273.444 216.729 272.288C218.452 272.092 220.177 271.967 221.907 271.846C221.091 266.064 219.604 260.005 218.091 254.367C217.26 251.27 216.239 248.15 215.615 245.005C215.547 244.663 215.59 244.428 215.707 244.104C217.239 244.048 218.692 244.113 220.217 244.269C221.222 248.061 221.963 251.885 222.64 255.747C222.98 257.684 223.156 259.771 223.679 261.657C224.993 260.243 226.854 246.663 227.128 244.004Z"/>
	<path fill="#F8F8F8" transform="matrix(2 0 0 2 -172 -417)" d="M325.821 243.862C327.54 243.958 329.408 244.405 330.665 245.661C333.26 248.253 332.609 253.715 332.636 257.15C329.173 257.259 325.695 257.204 322.23 257.205C322.242 258.22 322.254 259.236 322.302 260.25C322.369 261.69 322.415 265.154 323.694 266.032C324.428 266.536 325.419 266.606 326.266 266.461C328.005 265.179 327.065 263.314 327.9 261.632C328.169 261.089 328.531 260.718 329.119 260.56C330.071 260.305 331.808 260.545 332.621 261.056C332.7 263.159 332.377 265.609 331.084 267.339C329.875 268.957 327.902 269.676 325.959 269.923C323.987 270.174 321.98 269.879 320.409 268.581C318.474 266.981 317.967 264.598 317.801 262.211C317.531 258.316 317.105 248.839 319.799 245.919C321.41 244.174 323.602 244.005 325.821 243.862ZM324.93 247.536C324.109 247.837 323.763 247.922 323.327 248.756C322.524 250.295 322.689 252.692 322.64 254.415L325.263 254.451C326.004 254.407 327.01 254.471 327.635 254.063C327.999 252.486 328.13 249.737 327.133 248.348C326.75 247.815 326.423 247.67 325.775 247.567C325.539 247.53 325.177 247.537 324.93 247.536Z"/>
	<path fill="#F8F8F8" transform="matrix(2 0 0 2 -172 -417)" d="M240.513 233.817C241.721 233.782 243.492 233.526 244.524 234.246C245.571 234.978 251.976 266.503 252.318 269.736C250.787 269.861 249.318 269.919 247.784 269.848C247.145 267.737 246.808 262.757 245.876 261.13C245.624 260.69 245.434 260.756 244.971 260.615C242.96 260.696 240.971 260.725 238.958 260.669C238.674 263.731 237.855 266.838 237.175 269.837C235.672 269.836 234.17 269.769 232.668 269.715C233.139 265.753 239.539 234.974 240.513 233.817ZM242.569 242.388C241.796 244.82 239.535 254.615 239.65 256.627C240.422 257.063 241.211 256.929 242.063 256.889L245.561 256.77C245.026 254.72 243.214 242.946 242.569 242.388Z"/>
	<path fill="#F8F8F8" transform="matrix(2 0 0 2 -172 -417)" d="M255.84 244.124C256.693 244.073 257.794 243.904 258.628 244.089C259.453 244.271 260.082 244.962 260.962 245.005C263.629 245.135 265.976 242.461 268.556 244.958C271.446 247.754 271.263 253.528 271.165 257.211C271.073 260.683 271.198 266.166 268.416 268.687C267.416 269.594 266.135 269.972 264.799 269.883C263.079 269.768 261.735 269.001 260.319 268.086C260.283 271.395 260.3 274.714 260.209 278.021C259.259 278.002 258.32 277.979 257.37 278.029C256.781 278.06 256.48 277.976 255.952 277.724C255.538 277.031 255.61 276.69 255.603 275.896C255.542 271.956 255.22 245.83 255.84 244.124ZM263.491 247.809C262.549 247.986 261.638 248.061 260.887 248.704C259.737 250.628 260.587 262.144 260.385 265.425L263.94 265.916C264.343 265.899 264.769 266.014 265.057 265.688C266.704 263.828 266.428 254.057 266.035 251.331C265.855 250.081 265.656 248.838 264.612 248.02C264.245 247.944 263.864 247.837 263.491 247.809Z"/>
	<path fill="#F8F8F8" transform="matrix(2 0 0 2 -172 -417)" d="M285.109 243.82C285.553 243.846 285.983 243.869 286.413 243.991C287.877 244.406 288.787 245.497 289.435 246.824C291.514 251.077 291.246 261.668 289.579 266.041C289.044 267.443 288.12 269.106 286.655 269.704C284.617 270.536 282.047 269.603 280.109 268.838L279.984 277.476C279.964 277.506 279.95 277.541 279.924 277.566C279.26 278.186 276.266 277.985 275.233 278.033C275.346 266.754 275.203 255.436 275.157 244.153C275.692 244.098 276.225 244.057 276.761 244.017C278.281 243.903 279.58 245.053 280.905 244.937C282.125 244.829 283.449 244.031 284.782 243.859C284.891 243.845 285 243.833 285.109 243.82ZM282.726 248.056C281.943 248.182 281.13 248.195 280.541 248.779C279.911 250.694 279.885 263.558 280.427 265.625C281.58 266.134 282.99 266.043 284.238 266.057C285.521 265.087 285.578 263.996 285.789 262.484C286.24 259.245 286.911 251.468 284.786 248.773C284.442 248.335 284.061 248.165 283.503 248.104C283.245 248.076 282.985 248.069 282.726 248.056Z"/>
	<path fill="#F8F8F8" transform="matrix(2 0 0 2 -172 -417)" d="M209.532 233.865L211.898 233.939C212.158 246.064 212.522 258.184 212.632 270.313C211.252 270.223 209.863 270.233 208.48 270.214C207.61 262.297 207.913 254.321 207.677 246.373C206.532 250.329 203.2 268.883 201.307 270.609C200.877 270.734 200.678 270.734 200.282 270.465C197.588 268.635 194.918 250.338 193.547 246.051L193.433 245.699C193.144 247.539 193.018 249.335 192.95 251.195C192.966 257.445 193.253 263.831 192.609 270.051C191.255 270.171 189.9 270.116 188.543 270.09C188.409 267.213 188.711 264.23 188.77 261.344C188.956 252.291 189.433 243.186 189.35 234.137C191.038 234.064 192.629 234.103 194.31 234.275C196.607 243.567 199.116 252.98 200.486 262.466L205.068 242.255C205.641 239.697 205.884 236.755 206.765 234.312C207.572 233.782 208.597 233.883 209.532 233.865Z"/>
	<path fill="#F8F8F8" transform="matrix(2 0 0 2 -172 -417)" d="M136.955 230.004C138.799 227.659 140.611 225.221 143.042 223.444C148.979 219.105 155.242 219.167 162.269 219.152C164.903 219.146 167.663 219.011 170.266 219.43C172.859 219.848 174.734 220.8 176.238 222.994C176.987 224.087 177.592 225.344 177.742 226.674C178.096 229.799 177.921 233.078 177.919 236.223L177.901 251.758L177.911 268.927C177.913 273.131 178.265 277.944 177.335 282.048C176.767 284.555 174.811 285.961 172.739 287.205C168.57 288.864 155.379 287.772 149.956 288.22C147.813 290.222 146.358 292.864 144.224 294.9C139.517 295.376 134.285 295.21 129.567 294.894C127.607 293.103 126.095 290.025 123.907 288.729C119.445 286.086 104.711 290.322 98.9973 286.133C97.1746 284.797 96.1159 282.943 95.8315 280.705C95.5049 278.135 95.7029 275.388 95.717 272.792L95.7256 260.629L95.6998 239.874C95.6959 235.485 95.4496 230.899 96.0042 226.541C96.2326 224.747 96.6663 223.427 97.8566 222.018C99.4671 220.112 101.589 219.563 103.96 219.345C109.269 219.053 114.973 218.99 120.276 219.368C128.126 219.928 132.035 224.377 136.955 230.004ZM142.58 239.08C141.072 244.038 141.935 249.958 141.934 255.084C143.973 253.008 145.845 250.744 148.082 248.876C150.567 251.028 155.153 254.767 156.587 257.631L156.53 257.795L156.148 257.879L156.438 257.95C154.032 261.183 150.803 263.926 147.941 266.759C144.19 270.474 140.529 274.296 136.686 277.917L116.688 257.605C119.13 254.412 122.249 251.005 125.286 248.375C127.684 250.53 129.761 252.967 131.959 255.318L131.928 254.899C131.418 247.514 133.611 238.955 127.3 233.366C121.555 228.279 113.542 230.544 106.674 229.821C106.257 233.408 106.616 237.301 106.629 240.927L106.636 264.366C106.64 268.583 106.94 273.044 106.521 277.236C110.725 276.985 124.073 276.469 127.598 277.565C128.649 277.892 129.698 278.754 130.522 279.478C132.303 281.042 133.85 282.973 135.825 284.286L136.182 284.175C139.97 282.961 141.452 280.149 144.624 278.216C147.518 276.454 163.013 277.324 167.232 277.311C166.851 272.127 167.066 266.807 167.065 261.605C167.064 251.073 167.202 240.524 167.058 229.994C160.315 229.756 151.693 228.52 146.326 233.48C144.701 234.983 143.307 236.989 142.58 239.08Z"/>
</svg>
